<?xml version="1.0" encoding="UTF-8"?>
<svg width="800" height="600" viewBox="0 0 800 600" fill="none" xmlns="http://www.w3.org/2000/svg" role="img" aria-labelledby="title desc">
  <title id="title">Person working on a computer</title>
  <desc id="desc">A vector illustration of a person sitting at a desk and working on a computer.</desc>

  <!-- Background shapes -->
  <defs>
    <linearGradient id="grad1" x1="0" y1="0" x2="1" y2="1">
      <stop offset="0%" stop-color="#6366F1" stop-opacity="0.25"/>
      <stop offset="100%" stop-color="#22D3EE" stop-opacity="0.25"/>
    </linearGradient>
  </defs>

  <rect x="40" y="40" width="720" height="520" rx="20" fill="url(#grad1)"/>
  <circle cx="110" cy="120" r="20" fill="#60A5FA" opacity="0.35"/>
  <circle cx="710" cy="140" r="14" fill="#A78BFA" opacity="0.35"/>
  <circle cx="680" cy="460" r="18" fill="#34D399" opacity="0.35"/>

  <!-- Desk -->
  <rect x="130" y="360" width="540" height="18" rx="9" fill="#1F2937"/>
  <rect x="160" y="378" width="10" height="90" fill="#111827"/>
  <rect x="630" y="378" width="10" height="90" fill="#111827"/>

  <!-- Monitor -->
  <rect x="290" y="210" width="220" height="130" rx="12" fill="#111827"/>
  <rect x="300" y="220" width="200" height="110" rx="8" fill="#0EA5E9" opacity="0.15"/>
  <rect x="385" y="345" width="30" height="8" rx="4" fill="#111827"/>
  <rect x="372" y="353" width="56" height="10" rx="5" fill="#1F2937"/>

  <!-- Keyboard -->
  <rect x="320" y="392" width="160" height="12" rx="6" fill="#334155"/>
  <rect x="340" y="395" width="120" height="6" rx="3" fill="#64748B"/>

  <!-- Chair Base -->
  <rect x="250" y="420" width="12" height="48" rx="6" fill="#111827"/>
  <rect x="244" y="468" width="24" height="8" rx="4" fill="#1F2937"/>

  <!-- Person: torso and head -->
  <circle cx="250" cy="240" r="26" fill="#F59E0B"/>
  <rect x="228" y="268" width="90" height="90" rx="18" fill="#4F46E5"/>

  <!-- Person: left arm to keyboard -->
  <rect x="220" y="300" width="70" height="18" rx="9" transform="rotate(10 220 300)" fill="#4F46E5"/>
  <rect x="280" y="330" width="70" height="18" rx="9" transform="rotate(-15 280 330)" fill="#4F46E5"/>

  <!-- Person: legs -->
  <rect x="250" y="350" width="18" height="70" rx="9" transform="rotate(8 250 350)" fill="#1F2937"/>
  <rect x="288" y="350" width="18" height="70" rx="9" transform="rotate(-6 288 350)" fill="#1F2937"/>

  <!-- Plant -->
  <ellipse cx="560" cy="430" rx="50" ry="12" fill="#111827" opacity="0.5"/>
  <rect x="540" y="380" width="40" height="30" rx="6" fill="#10B981" opacity="0.85"/>
  <path d="M560 320 C545 335 550 360 560 380 C570 360 575 335 560 320 Z" fill="#34D399"/>
  <path d="M575 340 C560 355 565 370 575 385 C585 370 590 355 575 340 Z" fill="#22C55E"/>

  <!-- UI elements on monitor -->
  <rect x="320" y="235" width="150" height="12" rx="6" fill="#60A5FA" opacity="0.5"/>
  <rect x="320" y="255" width="100" height="10" rx="5" fill="#93C5FD" opacity="0.45"/>
  <rect x="320" y="272" width="130" height="10" rx="5" fill="#A78BFA" opacity="0.45"/>
  <rect x="320" y="289" width="70" height="10" rx="5" fill="#34D399" opacity="0.45"/>

  <!-- Decorative dots -->
  <g fill="#94A3B8" opacity="0.35">
    <circle cx="120" cy="460" r="3"/>
    <circle cx="140" cy="470" r="3"/>
    <circle cx="160" cy="455" r="3"/>
  </g>
</svg>


